<svg xmlns="http://www.w3.org/2000/svg" width="19" height="19" fill="none" viewBox="0 0 19 19">
  <mask id="a" width="9" height="9" x="5.125" y="5.125" fill="#000" maskUnits="userSpaceOnUse">
    <rect width="9" height="9" x="5.125" y="5.125" fill="#fff"/>
    <path fill-rule="evenodd" d="M11.18 7.82a2.375 2.375 0 1 1-3.36 3.36 2.375 2.375 0 0 1 3.36-3.36" clip-rule="evenodd"/>
  </mask>
  <path fill="#191B20" d="M12.24 6.76a1.5 1.5 0 1 0-2.121 2.121L12.24 6.76Zm-2.121 2.121A1.5 1.5 0 1 0 12.24 6.76l-2.121 2.121Zm0 0a.875.875 0 0 1 0 1.238l2.121 2.121a3.875 3.875 0 0 0 0-5.48l-2.121 2.121Zm0 1.238a.875.875 0 0 1-1.238 0L6.76 12.24a3.875 3.875 0 0 0 5.48 0l-2.121-2.121Zm-1.238 0a.875.875 0 0 1 0-1.238L6.76 6.76a3.875 3.875 0 0 0 0 5.48l2.121-2.121Zm0-1.238a.875.875 0 0 1 1.238 0L12.24 6.76a3.875 3.875 0 0 0-5.48 0l2.121 2.121Z" mask="url(#a)"/>
  <path d="M12.279 3.648a1.771 1.771 0 0 1 2.504 0l.571.572a1.771 1.771 0 0 1 0 2.504L12.28 3.648Zm0 0a.298.298 0 0 1-.329.064l-.004-.001-.002-.002-.136-.055a.221.221 0 0 1-.133-.205v-.054a1.77 1.77 0 0 0-1.77-1.77h-.809a1.77 1.77 0 0 0-1.771 1.77v.054a.215.215 0 0 1-.131.202l-.008.003-.023.01-.115.047a.298.298 0 0 1-.326-.065m5.557.002-5.557-.002m0 0a1.771 1.771 0 0 0-2.504 0l-.572.57v.001a1.771 1.771 0 0 0 0 2.504m3.076-3.075L3.646 6.72m0 0a.298.298 0 0 1 .064.329l.69.291-.69-.294a4.982 4.982 0 0 0-.059.148.216.216 0 0 1-.202.13h-.054a1.77 1.77 0 0 0-1.77 1.77v.809a1.77 1.77 0 0 0 1.77 1.771h.054c.096 0 .173.058.202.131l.698-.275-.7.272.057.14.001.003.002.004a.298.298 0 0 1-.064.328m0-5.557v5.557m0 0a1.771 1.771 0 0 0 0 2.504l.571.572a1.771 1.771 0 0 0 2.504 0m-3.075-3.076 3.075 3.075m0 0a.298.298 0 0 1 .329-.064l.004.002.003.001c.04.017.088.037.138.056.072.03.13.105.13.202v.053c0 .978.792 1.77 1.77 1.77h.808a1.77 1.77 0 0 0 1.77-1.77v-.053c0-.096.058-.174.132-.202l-.275-.698.272.699.14-.057.002-.001h.002a.305.305 0 0 1 .334.064c.691.69 1.813.69 2.504 0l.571-.572a1.771 1.771 0 0 0 0-2.504M6.72 15.354l8.634-3.075m0 0a.298.298 0 0 1-.064-.329l.002-.004m.062.333-.062-.333m0 0 .001-.002m-.001.002.001-.002m0 0c.017-.04.037-.089.056-.139l-.056.139Z"/>
</svg>
