<svg xmlns="http://www.w3.org/2000/svg" width="18" height="19" fill="none" viewBox="0 0 18 19">
  <path fill="#465DE7" fill-rule="evenodd" d="M18 9.705c0-.639-.058-1.252-.167-1.841h-8.65v3.481h4.943c-.213 1.125-.86 2.078-1.832 2.716v2.259h2.967C16.998 14.753 18 12.446 18 9.705Z" clip-rule="evenodd"/>
  <path fill="#34A853" fill-rule="evenodd" d="M9.183 18.5c2.48 0 4.559-.806 6.078-2.18l-2.968-2.259c-.822.54-1.874.86-3.11.86-2.391 0-4.416-1.584-5.138-3.711H.977v2.332c1.51 2.941 4.616 4.958 8.206 4.958Z" clip-rule="evenodd"/>
  <path fill="#FBBC05" fill-rule="evenodd" d="M4.045 11.21a5.312 5.312 0 0 1-.288-1.71c0-.593.104-1.17.288-1.71V5.458H.977a8.85 8.85 0 0 0 0 8.084l3.068-2.332Z" clip-rule="evenodd"/>
  <path fill="#EA4335" fill-rule="evenodd" d="M9.183 4.08c1.349 0 2.56.454 3.511 1.345l2.634-2.58C13.738 1.391 11.658.5 9.183.5 5.593.5 2.488 2.517.977 5.458L4.045 7.79c.722-2.127 2.747-3.71 5.138-3.71Z" clip-rule="evenodd"/>
</svg>
