<svg width="19" height="19" viewBox="0 0 19 19" fill="none" xmlns="http://www.w3.org/2000/svg">
  <g id="Group">
    <g id="Group_2">
      <path id="Path" d="M11.8996 7.39577C11.8996 7.2319 11.7666 7.09969 11.6027 7.09969C11.4389 7.10048 11.3059 7.23348 11.3059 7.39736C11.3059 7.56123 11.4389 7.69423 11.6027 7.69344C11.7666 7.69344 11.8996 7.56044 11.8996 7.39656" stroke-width="1.5" stroke-linecap="round" stroke-linejoin="round"/>
      <path id="Path_2" fill-rule="evenodd" clip-rule="evenodd" d="M9.89508 11.7048L9.07967 12.5218H7.62933V13.6847H6.46954V15.1382L5.38179 16.2291H2.77087V13.6127L7.30158 9.07167C6.6635 7.41392 7.0055 5.46484 8.33946 4.12771C10.1445 2.31876 13.0712 2.31876 14.8762 4.12771C16.6812 5.93667 16.6812 8.8698 14.8762 10.6795C13.5288 12.0285 11.5592 12.369 9.89508 11.7048Z" stroke-width="1.5" stroke-linecap="round" stroke-linejoin="round"/>
    </g>
  </g>
</svg>
