<svg xmlns="http://www.w3.org/2000/svg" width="25" height="24" fill="none" viewBox="0 0 25 24">
  <path d="M8.167 21a2.008 2.008 0 0 0 2.008-2.006l.004-4.044c.964-.422 1.835-1.128 2.41-2.234.915-1.754.74-3.958-.503-5.496a5.023 5.023 0 0 0-7.85.018C3 8.781 2.832 10.986 3.755 12.735a4.852 4.852 0 0 0 2.409 2.219l-.004 4.035A2.009 2.009 0 0 0 8.167 21Z" clip-rule="evenodd"/>
  <path d="M8.44 10.346a.294.294 0 1 0-.588 0 .294.294 0 0 0 .588 0"/>
  <path d="M13.43 5.632a2.631 2.631 0 1 0-5.263 0v4.42"/>
  <path d="m11.565 6.666.45-.45a2 2 0 0 1 2.828 0l5.737 5.737a2 2 0 0 1 0 2.828l-2.647 2.647a2 2 0 0 1-2.828 0l-3.453-3.453"/>
</svg>
