<svg xmlns="http://www.w3.org/2000/svg" width="19" height="19" fill="none" viewBox="0 0 19 19">
  <path d="M8.70833 11.875H5.54167C3.79276 11.875 2.375 13.2928 2.375 15.0417V15.8333"/>
  <circle cx="8.708" cy="5.542" r="3.167"/>
  <path d="M17.4167 13.0625C17.4167 14.5928 16.1762 15.8333 14.6459 15.8333C14.3706 15.8295 14.0976 15.7842 13.8358 15.6989"/>
  <path d="M14.6459 10.2917C16.1762 10.2917 17.4167 11.5323 17.4167 13.0626"/>
  <path d="M12.0087 13.8703C11.9239 13.6093 11.8789 13.337 11.875 13.0626C11.875 11.5323 13.1155 10.2917 14.6458 10.2917"/>
  <path d="M12.0087 13.8704L10.5072 15.3742C10.3695 15.513 10.292 15.7006 10.2916 15.8962V16.6783C10.2916 17.0861 10.6222 17.4168 11.03 17.4168H11.8156C12.0116 17.417 12.1996 17.3388 12.3376 17.1995L13.8357 15.699"/>
  <path d="M14.6854 13.0626C14.6854 13.0845 14.6677 13.1022 14.6458 13.1022C14.624 13.1022 14.6063 13.0844 14.6063 13.0626C14.6062 13.0407 14.6239 13.023 14.6458 13.023C14.6563 13.023 14.6664 13.0272 14.6738 13.0346C14.6813 13.042 14.6854 13.0521 14.6854 13.0626"/>
</svg>
