<svg width="19" height="19" viewBox="0 0 19 19" fill="none" xmlns="http://www.w3.org/2000/svg">
  <g id="Group">
    <path id="Path" d="M11.0834 2.375H12.6667C14.4156 2.375 15.8334 3.79276 15.8334 5.54167V5.54167" stroke-width="1.5" stroke-linecap="round" stroke-linejoin="round"/>
    <path id="Path_2" d="M5.54163 5.54171H11.875" stroke-width="1.5" stroke-linecap="round" stroke-linejoin="round"/>
    <path id="Path_3" d="M12.1221 14.5304C12.459 14.6483 12.8129 14.7106 13.1698 14.7147C14.6522 14.7392 15.9795 13.8 16.4496 12.3939C16.9198 10.9878 16.4244 9.43915 15.2255 8.56699C14.0265 7.69483 12.4006 7.70035 11.2076 8.58063C10.0145 9.4609 9.52967 11.0129 10.0094 12.4157V12.4157" stroke-width="1.5" stroke-linecap="round" stroke-linejoin="round"/>
    <path id="Path_4" d="M10.0093 12.4158L8.16659 14.2623C8.00653 14.4227 7.91663 14.64 7.91663 14.8666V15.8333C7.91663 16.2705 8.27107 16.625 8.70829 16.625H9.6788C9.90476 16.625 10.1214 16.5351 10.2811 16.3751L12.122 14.5304" stroke-width="1.5" stroke-linecap="round" stroke-linejoin="round"/>
    <path id="Path_5" d="M13.2258 11.2186C13.1711 11.2186 13.1268 11.2629 13.1268 11.3176C13.1268 11.3722 13.1711 11.4165 13.2258 11.4165C13.2804 11.4165 13.3247 11.3722 13.3247 11.3176C13.3247 11.2629 13.2804 11.2186 13.2258 11.2186V11.2186" stroke-width="1.5" stroke-linecap="round" stroke-linejoin="round"/>
    <path id="Path_6" d="M7.125 8.70833H5.54167C3.79276 8.70833 2.375 7.29057 2.375 5.54167V5.54167C2.375 3.79276 3.79276 2.375 5.54167 2.375H7.125" stroke-width="1.5" stroke-linecap="round" stroke-linejoin="round"/>
    <path id="Path_7" d="M11.0834 2.375H12.6667C14.4156 2.375 15.8334 3.79276 15.8334 5.54167" stroke-width="1.5" stroke-linecap="round" stroke-linejoin="round"/>
  </g>
</svg>
