<svg xmlns="http://www.w3.org/2000/svg" width="25" height="24" fill="none" viewBox="0 0 25 24">
  <path d="M14.742 10.09a2.7 2.7 0 1 1-3.818 3.82 2.7 2.7 0 0 1 3.819-3.82"/>
  <path d="M6.083 12c0 .297.027.594.063.882l-1.588 1.242a.898.898 0 0 0-.224 1.156l1.412 2.443a.898.898 0 0 0 1.112.384l1.422-.571a.912.912 0 0 1 .846.099c.22.146.448.28.684.4a.92.92 0 0 1 .51.682l.216 1.513c.063.442.442.77.888.77h2.817a.897.897 0 0 0 .888-.77l.217-1.512a.918.918 0 0 1 .512-.683c.235-.118.462-.251.681-.396a.915.915 0 0 1 .85-.102l1.42.57a.899.899 0 0 0 1.111-.384l1.412-2.443a.898.898 0 0 0-.224-1.156l-1.588-1.242c.036-.288.063-.585.063-.882 0-.297-.027-.594-.063-.882l1.588-1.242a.898.898 0 0 0 .224-1.156L19.92 6.277a.898.898 0 0 0-1.112-.384l-1.419.57a.918.918 0 0 1-.85-.102 6.597 6.597 0 0 0-.68-.396.918.918 0 0 1-.513-.683L15.13 3.77a.897.897 0 0 0-.888-.77h-2.817a.897.897 0 0 0-.888.77l-.218 1.514a.92.92 0 0 1-.509.682c-.236.12-.464.255-.684.4a.917.917 0 0 1-.847.098l-1.42-.571a.898.898 0 0 0-1.113.384L4.334 8.72a.898.898 0 0 0 .224 1.156l1.588 1.242a7.138 7.138 0 0 0-.063.882Z" clip-rule="evenodd"/>
</svg>
