<svg width="25" height="24" viewBox="0 0 25 24" fill="none" xmlns="http://www.w3.org/2000/svg">
<path d="M14.7425 10.0908C15.7969 11.1452 15.7969 12.8548 14.7425 13.9092C13.6881 14.9636 11.9785 14.9636 10.9241 13.9092C9.8697 12.8548 9.8697 11.1452 10.9241 10.0908C11.9785 9.03638 13.6881 9.03638 14.7425 10.0908" stroke="#80889C" stroke-width="1.5" stroke-linecap="round" stroke-linejoin="round"/>
<path fill-rule="evenodd" clip-rule="evenodd" d="M6.08324 12C6.08324 12.297 6.11024 12.594 6.14624 12.882L4.55824 14.124C4.20624 14.4 4.11024 14.893 4.33424 15.28L5.74624 17.723C5.96924 18.11 6.44324 18.273 6.85824 18.107L8.28024 17.536C8.56124 17.423 8.87424 17.468 9.12624 17.635C9.34624 17.781 9.57424 17.915 9.81024 18.035C10.0802 18.172 10.2762 18.417 10.3192 18.717L10.5362 20.23C10.5992 20.672 10.9782 21 11.4242 21H14.2412C14.6872 21 15.0662 20.672 15.1292 20.23L15.3462 18.718C15.3892 18.418 15.5872 18.171 15.8582 18.035C16.0932 17.917 16.3202 17.784 16.5392 17.639C16.7932 17.471 17.1072 17.423 17.3892 17.537L18.8082 18.107C19.2222 18.273 19.6962 18.11 19.9202 17.723L21.3322 15.28C21.5562 14.893 21.4602 14.399 21.1082 14.124L19.5202 12.882C19.5562 12.594 19.5832 12.297 19.5832 12C19.5832 11.703 19.5562 11.406 19.5202 11.118L21.1082 9.876C21.4602 9.6 21.5562 9.107 21.3322 8.72L19.9202 6.277C19.6972 5.89 19.2232 5.727 18.8082 5.893L17.3892 6.463C17.1072 6.576 16.7932 6.529 16.5392 6.361C16.3202 6.216 16.0932 6.083 15.8582 5.965C15.5872 5.829 15.3892 5.582 15.3462 5.282L15.1302 3.77C15.0672 3.328 14.6882 3 14.2422 3H11.4252C10.9792 3 10.6002 3.328 10.5372 3.77L10.3192 5.284C10.2762 5.583 10.0792 5.829 9.81024 5.966C9.57424 6.086 9.34624 6.221 9.12624 6.366C8.87324 6.532 8.56024 6.577 8.27924 6.464L6.85824 5.893C6.44324 5.727 5.96924 5.89 5.74624 6.277L4.33424 8.72C4.11024 9.107 4.20624 9.601 4.55824 9.876L6.14624 11.118C6.11024 11.406 6.08324 11.703 6.08324 12V12Z" stroke="#80889C" stroke-width="1.5" stroke-linecap="round" stroke-linejoin="round"/>
</svg>
