<svg width="21" height="21" viewBox="0 0 21 21" fill="none" xmlns="http://www.w3.org/2000/svg">
  <g id="Group">
    <path id="Path" d="M17.628 10.5C17.628 14.4367 14.4367 17.628 10.5 17.628" stroke-width="1.5" stroke-linecap="round" stroke-linejoin="round"/>
    <path id="Path_2" d="M3.37207 10.5C3.37207 6.56337 6.56337 3.37207 10.5 3.37207" stroke-width="1.5" stroke-linecap="round" stroke-linejoin="round"/>
    <path id="Path_3" d="M3.37207 10.5C3.37218 11.335 3.52068 12.1632 3.81065 12.9462C3.94326 13.3098 4.31714 13.5264 4.69855 13.4605L5.47961 13.3228C6.11089 13.2115 6.54003 12.6194 6.44937 11.9849L6.21429 10.3393C6.16878 10.0208 5.99598 9.73428 5.73543 9.54543C5.47488 9.35658 5.14886 9.28151 4.83195 9.33739L3.43757 9.58325" stroke-width="1.5" stroke-linecap="round" stroke-linejoin="round"/>
    <path id="Path_4" d="M17.628 10.5C17.628 6.56337 14.4367 3.37207 10.5 3.37207" stroke-width="1.5" stroke-linecap="round" stroke-linejoin="round"/>
    <path id="Path_5" d="M17.6281 10.5C17.628 11.335 17.4795 12.1632 17.1895 12.9462C17.0569 13.3098 16.683 13.5264 16.3016 13.4605L15.5205 13.3228C14.8893 13.2115 14.4601 12.6194 14.5508 11.9849L14.7859 10.3393C14.8314 10.0208 15.0042 9.73428 15.2647 9.54543C15.5253 9.35658 15.8513 9.28151 16.1682 9.33739L17.5626 9.58325" stroke-width="1.5" stroke-linecap="round" stroke-linejoin="round"/>
    <path id="Path_6" d="M11.6821 10.8889C11.6797 10.8889 11.6776 10.8903 11.6767 10.8925C11.6757 10.8947 11.6762 10.8973 11.6779 10.899C11.6796 10.9007 11.6822 10.9012 11.6844 10.9002C11.6866 10.8993 11.688 10.8972 11.688 10.8948C11.6881 10.8932 11.6875 10.8916 11.6864 10.8905C11.6853 10.8894 11.6837 10.8888 11.6821 10.8889" stroke-width="1.5" stroke-linecap="round" stroke-linejoin="round"/>
    <path id="Path_7" d="M9.318 10.8913C9.3156 10.8913 9.31344 10.8928 9.31252 10.895C9.31161 10.8972 9.31211 10.8997 9.31381 10.9014C9.3155 10.9031 9.31805 10.9036 9.32026 10.9027C9.32247 10.9018 9.32391 10.8996 9.3239 10.8972C9.32401 10.8956 9.32343 10.894 9.32229 10.8929C9.32116 10.8918 9.31959 10.8912 9.318 10.8913" stroke-width="1.5" stroke-linecap="round" stroke-linejoin="round"/>
  </g>
</svg>
